<svg xmlns="http://www.w3.org/2000/svg" width="1792" height="585" viewBox="0 0 1792 585">
<g>
<path d="M 1262.65 411.39 C1238.48,416.41 1209.34,411.77 1191.17,400.03 C1187.91,397.92 1184.94,395.70 1184.56,395.10 C1183.76,393.81 1197.03,368.03 1198.50,368.01 C1199.05,368.01 1201.69,369.55 1204.36,371.45 C1215.41,379.31 1231.47,383.76 1244.71,382.64 C1260.95,381.27 1270.01,373.20 1272.91,357.53 C1274.10,351.12 1274.36,344.00 1273.40,344.00 C1273.08,344.00 1270.81,345.76 1268.37,347.91 C1253.62,360.89 1228.36,362.34 1208.45,351.35 C1205.73,349.85 1200.24,345.39 1196.27,341.44 C1183.33,328.60 1177.32,312.04 1178.32,291.96 C1180.15,254.95 1206.29,230.39 1241.87,232.25 C1253.81,232.87 1260.44,235.26 1268.69,241.90 L 1274.79 246.82 L 1275.47 240.41 L 1276.16 234.00 L 1310.12 234.00 L 1309.74 296.75 C1309.38,357.57 1309.30,359.76 1307.17,367.89 C1300.98,391.46 1285.42,406.67 1262.65,411.39 ZM 1000.03 332.25 L 1000.00 365.00 L 982.67 365.00 C973.13,365.00 965.03,364.70 964.67,364.33 C964.30,363.97 964.00,334.49 964.00,298.83 L 964.00 234.00 L 998.00 234.00 L 998.00 247.12 L 1002.75 243.17 C1012.97,234.66 1024.12,231.29 1038.65,232.31 C1050.42,233.14 1059.22,237.22 1066.41,245.17 L 1071.66 250.96 L 1076.79 246.01 C1095.78,227.71 1129.78,227.22 1146.42,245.02 C1149.01,247.79 1152.49,252.95 1154.15,256.50 C1159.47,267.87 1160.05,274.71 1159.76,322.01 L 1159.50 364.50 L 1124.00 365.05 L 1123.99 327.27 C1123.99,306.09 1123.53,286.70 1122.95,283.13 C1120.59,268.57 1112.97,261.82 1100.73,263.44 C1094.72,264.24 1091.42,265.83 1087.86,269.66 C1080.70,277.38 1080.00,282.55 1080.00,327.71 L 1080.00 365.05 L 1044.50 364.50 L 1044.00 322.50 C1043.51,280.95 1043.47,280.44 1041.12,275.24 C1037.91,268.13 1033.47,264.39 1027.22,263.53 C1017.01,262.13 1008.41,266.67 1004.30,275.66 C1000.85,283.19 1000.06,293.69 1000.03,332.25 ZM 575.00 342.33 L 574.50 364.50 L 556.37 364.77 C540.71,365.01 538.15,364.83 537.63,363.49 C537.30,362.63 537.05,324.60 537.06,278.97 L 537.09 196.00 L 574.98 196.00 L 575.50 270.97 L 584.95 259.74 C590.15,253.56 604.51,236.69 616.86,222.25 L 639.31 196.00 L 660.81 196.00 C681.19,196.00 682.23,196.09 680.82,197.75 C680.00,198.71 671.27,209.14 661.41,220.92 C651.56,232.70 638.25,248.50 631.84,256.04 L 620.19 269.75 L 640.88 299.62 C675.63,349.80 684.96,363.71 684.30,364.37 C683.95,364.72 674.37,365.00 663.01,365.00 C660.63,365.00 658.52,365.02 656.64,365.04 C648.94,365.11 645.12,365.15 642.14,363.58 C638.47,361.64 636.08,357.26 629.33,347.50 C607.82,316.42 594.76,297.91 594.54,298.19 C594.01,298.88 579.51,315.67 577.58,317.83 C575.64,320.00 575.47,321.67 575.00,342.33 ZM 881.06 365.42 C863.40,369.43 844.24,364.79 832.85,353.74 C830.63,351.58 827.39,346.82 825.65,343.16 C822.71,336.94 822.50,335.77 822.50,325.50 C822.50,315.50 822.75,313.99 825.28,308.84 C830.07,299.08 839.21,292.65 853.49,289.00 C858.77,287.65 866.53,286.94 881.51,286.42 L 902.23 285.70 L 901.63 281.33 C900.40,272.36 895.20,265.73 887.61,263.48 C881.31,261.60 869.10,261.60 862.10,263.46 C856.31,265.00 844.51,270.68 842.79,272.75 C842.22,273.44 841.24,274.00 840.61,274.00 C839.98,274.00 836.64,268.33 833.19,261.40 C828.37,251.73 827.17,248.50 828.03,247.46 C830.29,244.74 847.76,236.98 856.50,234.82 C869.57,231.58 891.25,231.56 902.32,234.77 C913.28,237.94 917.56,240.37 924.55,247.39 C937.77,260.65 939.12,267.86 938.76,323.51 L 938.50 364.50 L 905.50 364.50 L 905.20 357.75 C905.04,354.04 904.66,351.00 904.35,351.00 C904.04,351.00 902.93,352.09 901.88,353.43 C898.23,358.07 888.34,363.76 881.06,365.42 ZM 1386.20 365.88 C1366.07,370.15 1342.17,361.39 1333.48,346.56 C1332.16,344.30 1330.34,339.32 1329.44,335.48 C1324.01,312.40 1336.75,293.74 1361.50,288.51 C1365.40,287.69 1377.47,286.73 1388.74,286.36 L 1408.97 285.68 L 1408.35 281.59 C1406.98,272.65 1400.64,265.06 1392.76,262.93 C1390.22,262.24 1384.66,261.97 1379.00,262.26 C1368.40,262.80 1362.14,264.78 1352.81,270.54 C1349.62,272.51 1346.67,273.91 1346.25,273.65 C1345.84,273.39 1342.83,267.77 1339.57,261.16 C1334.28,250.45 1333.79,248.95 1335.07,247.40 C1337.22,244.78 1353.74,237.26 1362.65,234.84 C1373.43,231.93 1398.29,231.66 1408.00,234.36 C1427.18,239.70 1439.22,252.06 1443.39,270.70 C1444.73,276.71 1445.00,285.07 1445.00,321.47 L 1445.00 365.05 L 1428.25 364.77 L 1411.50 364.50 L 1411.20 357.66 L 1410.90 350.82 L 1406.08 355.32 C1400.36,360.68 1393.48,364.33 1386.20,365.88 ZM 744.20 365.88 C739.10,366.96 728.20,367.18 723.00,366.31 C712.69,364.58 701.90,358.91 695.61,351.91 C689.11,344.68 686.60,337.63 686.55,326.50 C686.50,314.48 688.56,308.67 695.56,301.10 C705.43,290.45 715.73,287.49 746.81,286.41 L 767.13 285.71 L 766.46 281.60 C765.35,274.79 761.16,268.18 756.05,265.18 C751.78,262.67 750.75,262.50 739.50,262.55 C726.04,262.61 720.95,264.03 711.16,270.48 C708.23,272.42 705.41,274.00 704.91,274.00 C704.40,274.00 701.18,268.34 697.74,261.42 L 691.50 248.85 L 694.00 246.78 C698.10,243.39 711.94,237.17 720.50,234.87 C732.54,231.63 756.34,231.60 767.48,234.82 C784.64,239.77 795.04,249.80 800.28,266.46 C802.44,273.30 802.50,274.81 802.50,319.00 L 802.50 364.50 L 769.50 364.50 L 769.20 358.25 C769.04,354.81 768.64,352.00 768.31,352.00 C767.99,352.00 765.80,353.77 763.45,355.94 C758.20,360.78 751.20,364.39 744.20,365.88 ZM 412.00 384.65 C405.12,386.44 399.05,387.22 390.00,387.50 C375.55,387.95 367.87,387.06 355.67,383.52 C329.69,375.99 313.97,363.88 278.00,323.64 C268.92,313.49 261.01,304.96 260.42,304.69 C259.82,304.42 247.52,317.42 233.08,333.60 C218.65,349.77 206.53,363.00 206.17,363.00 C205.80,363.00 205.64,350.99 205.81,336.32 L 206.11 309.64 L 212.31 302.64 C219.08,294.99 266.11,242.75 291.49,214.68 L 307.48 197.00 L 355.31 197.00 L 353.40 199.21 C350.53,202.55 324.84,231.07 305.40,252.50 C295.92,262.95 287.18,272.75 285.98,274.28 L 283.80 277.06 L 288.12 281.78 C315.51,311.69 327.78,324.87 334.96,332.08 C339.66,336.80 345.08,342.63 347.00,345.03 C359.44,360.56 375.34,372.06 391.50,377.23 C399.22,379.70 419.09,380.78 424.41,379.03 C426.46,378.35 428.38,378.04 428.68,378.34 C429.55,379.22 422.21,381.99 412.00,384.65 ZM 1506.02 335.25 L 1506.00 365.00 L 1488.67 365.00 C1479.13,365.00 1471.03,364.70 1470.67,364.33 C1470.30,363.97 1470.00,334.49 1470.00,298.83 L 1470.00 234.00 L 1504.00 234.00 L 1504.00 242.00 C1504.00,246.40 1504.22,250.00 1504.48,250.00 C1504.74,250.00 1506.83,247.97 1509.12,245.48 C1516.30,237.70 1530.67,232.03 1543.27,232.01 L 1547.05 232.00 L 1546.77 249.03 L 1546.50 266.05 L 1537.50 266.36 C1526.98,266.72 1522.90,268.21 1516.67,273.95 C1507.45,282.45 1506.04,290.52 1506.02,335.25 ZM 431.00 366.18 C423.44,368.80 408.51,369.41 399.50,367.46 C391.81,365.80 377.93,359.43 374.00,355.76 C372.62,354.48 370.38,352.63 369.00,351.67 C366.53,349.92 366.56,349.91 372.00,350.70 C375.02,351.14 382.45,351.48 388.50,351.46 C401.05,351.42 408.91,349.38 420.00,343.27 C428.32,338.69 440.46,326.47 444.75,318.36 C446.54,314.98 448.00,311.95 448.00,311.61 C448.00,311.27 436.30,311.00 422.00,311.00 L 396.00 311.00 L 396.00 277.00 L 487.87 277.00 L 488.54 279.13 C489.40,281.83 488.25,296.51 486.51,305.08 C485.39,310.63 482.28,317.61 475.71,329.31 C474.00,332.36 466.70,341.92 463.33,345.54 C455.15,354.31 443.13,361.98 431.00,366.18 ZM 1236.80 325.66 C1245.21,328.02 1255.46,325.94 1262.71,320.41 C1273.21,312.40 1276.81,291.34 1269.97,277.94 C1264.68,267.57 1256.88,262.99 1244.55,263.02 C1227.18,263.07 1216.52,273.60 1215.27,291.96 C1214.11,308.80 1222.28,321.58 1236.80,325.66 ZM 221.73 268.25 C213.45,277.46 206.38,285.00 206.02,285.00 C205.65,285.00 205.34,265.20 205.33,241.00 L 205.32 197.00 L 241.00 197.00 L 241.00 222.35 C241.00,246.89 240.93,247.75 238.88,249.60 C237.72,250.64 230.00,259.04 221.73,268.25 ZM 1372.59 337.73 C1375.57,339.43 1378.12,339.97 1383.28,339.98 C1398.92,340.02 1408.97,330.32 1408.99,315.15 L 1409.00 308.80 L 1392.25 309.16 C1378.00,309.46 1374.90,309.82 1371.50,311.51 C1366.22,314.13 1363.75,318.89 1364.30,325.32 C1364.80,331.02 1367.23,334.67 1372.59,337.73 ZM 730.59 337.80 C734.00,339.80 735.55,340.05 742.69,339.73 C749.65,339.42 751.59,338.92 755.66,336.41 C762.85,331.96 766.38,325.61 766.85,316.26 L 767.23 308.83 L 750.36 309.16 C735.52,309.46 733.08,309.75 730.00,311.55 C724.39,314.85 721.74,319.58 722.27,325.32 C722.80,331.01 725.22,334.64 730.59,337.80 ZM 865.91 337.71 C875.18,342.52 889.83,339.73 896.44,331.89 C900.63,326.92 902.00,322.87 902.00,315.43 L 902.00 308.80 L 885.25 309.18 C867.22,309.59 864.24,310.33 860.22,315.45 C854.80,322.33 857.63,333.42 865.91,337.71 ZM 625.32 431.93 C621.44,433.01 620.29,433.10 618.50,432.51 C617.95,432.33 616.30,431.91 614.83,431.59 C608.65,430.23 602.00,421.43 602.00,414.60 C602.00,407.70 606.36,401.10 612.72,398.38 C617.07,396.51 625.44,396.64 629.63,398.63 C633.48,400.45 637.79,406.96 638.65,412.21 C639.98,420.43 633.80,429.57 625.32,431.93 ZM 842.07 431.47 C837.37,433.13 835.81,433.23 831.99,432.07 C822.45,429.16 818.00,423.55 818.00,414.42 C818.00,407.08 820.46,402.72 826.53,399.28 C832.12,396.12 841.39,396.11 846.09,399.28 C853.41,404.21 856.14,414.89 852.11,422.79 C849.63,427.63 847.35,429.61 842.07,431.47 ZM 866.00 426.50 C866.00,431.70 865.86,432.00 863.50,432.00 L 861.00 432.00 L 861.00 396.77 L 871.32 397.16 C883.42,397.60 886.30,398.93 888.09,404.91 C889.58,409.89 888.66,413.49 884.95,417.21 C883.33,418.83 882.00,420.40 882.00,420.69 C882.00,420.99 883.58,423.38 885.50,426.00 C887.42,428.62 889.00,431.05 889.00,431.38 C889.00,431.72 887.95,432.00 886.67,432.00 C884.96,432.00 883.31,430.51 880.54,426.50 L 876.76 421.00 L 866.00 421.00 ZM 1096.00 426.50 C1096.00,431.33 1095.76,432.00 1094.00,432.00 C1092.08,432.00 1092.00,431.33 1092.00,414.50 L 1092.00 397.00 L 1100.75 397.00 C1111.36,397.00 1115.65,398.76 1118.30,404.19 C1120.65,409.00 1119.28,414.85 1115.01,418.20 L 1112.08 420.50 L 1116.04 425.69 C1118.22,428.54 1120.00,431.13 1120.00,431.44 C1120.00,431.75 1118.92,432.00 1117.60,432.00 C1115.79,432.00 1114.28,430.63 1111.54,426.50 L 1107.89 421.00 L 1096.00 421.00 ZM 543.00 426.50 C543.00,431.70 542.86,432.00 540.50,432.00 L 538.00 432.00 L 538.00 396.82 L 548.48 397.16 C558.67,397.49 559.05,397.59 562.06,400.59 C565.63,404.17 566.83,410.08 564.77,413.97 C562.27,418.71 557.41,421.00 549.85,421.00 L 543.00 421.00 ZM 650.00 426.50 C650.00,431.33 649.76,432.00 648.00,432.00 C646.08,432.00 646.00,431.33 646.00,414.50 L 646.00 397.00 L 654.53 397.00 C664.69,397.00 669.17,398.59 671.97,403.19 C675.53,409.02 674.12,414.65 668.09,418.72 C665.33,420.58 663.35,421.00 657.35,421.00 L 650.00 421.00 ZM 784.20 418.52 C780.26,430.87 779.70,432.00 777.51,432.00 C776.19,432.00 774.92,431.66 774.68,431.25 C774.44,430.84 771.88,423.52 768.99,415.00 C766.10,406.48 763.52,398.94 763.26,398.25 C762.96,397.46 763.71,397.00 765.31,397.00 C767.65,397.00 768.13,397.90 771.92,409.25 C774.16,415.99 776.00,422.29 776.00,423.25 C776.00,427.68 777.91,423.92 782.10,411.25 C786.28,398.60 786.84,397.50 789.07,397.50 C791.29,397.50 791.88,398.62 795.99,410.75 C798.46,418.04 800.73,424.00 801.03,424.00 C801.34,424.00 803.57,417.92 806.00,410.50 C810.04,398.15 810.62,397.00 812.82,397.00 C814.32,397.00 815.04,397.47 814.75,398.25 C814.49,398.94 811.86,406.83 808.90,415.79 C803.74,431.41 803.41,432.07 801.01,431.79 C798.74,431.53 798.07,430.23 794.01,418.25 C791.54,410.96 789.29,405.01 789.01,405.02 C788.73,405.04 786.57,411.11 784.20,418.52 ZM 613.21 425.86 C622.27,431.66 633.99,425.20 634.00,414.40 C634.00,409.71 630.82,404.23 626.97,402.28 C623.00,400.27 616.72,400.72 612.91,403.28 C608.77,406.07 607.03,409.31 607.01,414.30 C607.00,419.26 609.14,423.25 613.21,425.86 ZM 830.42 427.03 C831.56,427.49 834.40,427.90 836.72,427.94 C840.05,427.99 841.66,427.36 844.45,424.91 C851.13,419.05 851.12,409.95 844.44,404.08 C840.42,400.55 835.32,400.00 829.43,402.47 C824.89,404.36 821.57,411.20 822.58,416.57 C823.32,420.54 827.22,425.74 830.42,427.03 ZM 901.00 427.49 C901.00,431.63 900.80,432.00 898.50,432.00 L 896.00 432.00 L 896.00 397.00 L 898.50 397.00 C900.99,397.00 901.00,397.03 901.00,406.50 C901.00,411.73 901.20,416.00 901.44,416.00 C901.68,416.00 906.08,411.68 911.22,406.40 C918.80,398.61 921.02,396.87 923.02,397.15 C925.32,397.48 924.99,398.01 918.15,405.22 L 910.81 412.93 L 918.40 421.89 C922.58,426.81 926.00,431.10 926.00,431.42 C926.00,431.74 924.89,432.00 923.53,432.00 C921.68,432.00 919.49,430.12 914.80,424.50 C911.36,420.38 908.05,417.00 907.44,417.00 C906.83,417.00 905.13,418.35 903.67,419.99 C901.61,422.29 901.00,424.02 901.00,427.49 ZM 735.00 430.00 C735.00,431.89 734.33,432.00 722.67,432.00 C715.88,432.00 710.03,431.70 709.67,431.33 C709.30,430.97 709.00,423.09 709.00,413.83 L 709.00 397.00 L 721.50 397.00 C733.33,397.00 734.00,397.11 734.00,399.00 C734.00,400.87 733.33,401.00 724.00,401.00 L 714.00 401.00 L 714.00 412.00 L 723.00 412.00 C731.33,412.00 732.00,412.15 732.00,414.00 C732.00,415.85 731.33,416.00 723.00,416.00 L 714.00 416.00 L 714.00 428.00 L 724.50 428.00 C734.33,428.00 735.00,428.13 735.00,430.00 ZM 1152.00 430.00 C1152.00,431.89 1151.33,432.00 1139.50,432.00 L 1127.00 432.00 L 1127.00 397.00 L 1139.00 397.00 C1150.33,397.00 1151.00,397.11 1151.00,399.00 C1151.00,400.86 1150.33,401.00 1141.50,401.00 L 1132.00 401.00 L 1132.00 412.00 L 1140.50 412.00 C1148.33,412.00 1149.00,412.16 1149.00,414.00 C1149.00,415.84 1148.33,416.00 1140.50,416.00 L 1132.00 416.00 L 1132.00 428.00 L 1142.00 428.00 C1151.33,428.00 1152.00,428.13 1152.00,430.00 ZM 598.00 430.03 C598.00,431.88 597.26,432.00 585.50,432.00 L 573.00 432.00 L 573.00 397.00 L 585.00 397.00 C596.33,397.00 597.00,397.11 597.00,399.00 C597.00,400.87 596.33,401.00 587.00,401.00 L 577.00 401.00 L 577.00 412.00 L 586.00 412.00 C594.33,412.00 595.00,412.15 595.00,414.00 C595.00,415.85 594.33,416.00 585.95,416.00 L 576.90 416.00 L 577.20 421.75 L 577.50 427.50 L 587.75 427.78 C597.18,428.05 598.00,428.23 598.00,430.03 ZM 1009.29 430.35 C1002.18,434.03 994.86,432.88 989.97,427.31 L 987.00 423.93 L 987.00 410.47 C987.00,397.67 987.10,397.00 989.00,397.00 C990.88,397.00 991.00,397.67 991.00,407.85 C991.00,413.82 991.48,420.09 992.07,421.78 C994.39,428.44 1002.95,430.20 1008.08,425.08 C1011.00,422.16 1011.00,422.14 1011.00,409.58 L 1011.00 397.00 L 1016.00 397.00 L 1015.98 408.75 C1015.95,422.22 1014.23,427.80 1009.29,430.35 ZM 1072.06 432.00 C1067.64,433.23 1067.35,433.22 1062.74,431.57 C1054.46,428.62 1053.00,425.23 1053.00,409.03 L 1053.00 397.00 L 1058.00 397.00 L 1058.00 409.58 C1058.00,422.14 1058.00,422.16 1060.92,425.08 C1063.08,427.24 1064.80,428.00 1067.49,428.00 C1075.85,428.00 1078.00,423.91 1078.00,408.03 C1078.00,397.53 1078.10,397.00 1080.08,397.00 C1082.09,397.00 1082.14,397.39 1081.83,410.94 C1081.50,424.81 1081.49,424.89 1078.56,427.94 C1076.94,429.63 1074.01,431.46 1072.06,432.00 ZM 961.00 425.00 C961.00,431.80 960.93,432.00 958.50,432.00 L 956.00 432.00 L 956.00 397.00 L 968.50 397.00 C980.33,397.00 981.00,397.11 981.00,399.00 C981.00,400.87 980.33,401.00 970.95,401.00 L 960.90 401.00 L 961.50 413.50 L 969.75 413.79 C977.18,414.05 978.00,414.28 978.00,416.04 C978.00,417.83 977.27,418.00 969.50,418.00 L 961.00 418.00 ZM 1096.67 416.33 C1097.03,416.70 1100.20,417.00 1103.71,417.00 C1109.15,417.00 1110.45,416.64 1112.55,414.55 C1115.52,411.57 1115.75,407.15 1113.11,403.89 C1111.49,401.89 1110.12,401.49 1103.61,401.17 L 1096.00 400.78 L 1096.00 408.22 C1096.00,412.32 1096.30,415.97 1096.67,416.33 ZM 1043.00 401.00 L 1037.00 401.00 L 1037.00 432.00 L 1032.00 432.00 L 1032.00 401.00 L 1026.00 401.00 C1020.67,401.00 1020.00,400.78 1020.00,399.00 C1020.00,397.09 1020.67,397.00 1034.50,397.00 C1048.33,397.00 1049.00,397.09 1049.00,399.00 C1049.00,400.78 1048.33,401.00 1043.00,401.00 ZM 650.46 415.76 C650.90,416.91 652.54,417.14 658.13,416.82 C664.09,416.49 665.55,416.04 667.12,414.10 C669.53,411.12 669.52,406.86 667.09,403.86 C665.39,401.77 664.35,401.50 657.84,401.50 L 650.50 401.50 L 650.20 407.89 C650.03,411.41 650.15,414.95 650.46,415.76 ZM 543.00 401.00 L 543.00 417.00 L 549.55 417.00 C555.16,417.00 556.44,416.65 558.55,414.55 C560.09,413.00 561.00,410.95 561.00,409.00 C561.00,407.05 560.09,405.00 558.55,403.45 C556.44,401.35 555.16,401.00 549.55,401.00 ZM 866.00 400.77 L 866.00 417.00 L 872.55 417.00 C878.16,417.00 879.44,416.65 881.55,414.55 C884.51,411.58 884.75,407.15 882.12,403.90 C880.55,401.96 879.09,401.51 873.12,401.18 ZM 704.00 430.04 C704.00,431.87 703.26,432.00 692.50,432.00 L 681.00 432.00 L 681.00 414.50 C681.00,397.74 681.08,397.00 682.97,397.00 C684.84,397.00 684.96,397.83 685.22,412.25 L 685.50 427.50 L 694.75 427.79 C703.18,428.05 704.00,428.25 704.00,430.04 ZM 1163.50 430.01 C1162.77,432.30 1159.78,432.64 1158.11,430.63 C1156.45,428.63 1157.84,426.00 1160.55,426.00 C1163.36,426.00 1164.35,427.33 1163.50,430.01 ZM 934.99 430.51 C933.40,432.43 930.38,432.43 929.64,430.50 C928.69,428.04 930.05,426.00 932.64,426.00 C935.49,426.00 936.74,428.40 934.99,430.51 ZM 745.50 429.00 C745.50,430.83 744.90,431.59 743.25,431.82 C740.79,432.17 739.39,430.02 740.39,427.43 C740.75,426.49 741.89,425.99 743.25,426.18 C744.90,426.41 745.50,427.17 745.50,429.00 Z" fill="rgb(2,3,4)"/>
<path d="M 366.48 332.03 C365.62,333.42 364.05,333.21 359.50,331.11 C353.12,328.17 343.84,320.81 338.46,314.41 C335.73,311.16 328.88,303.37 323.24,297.09 L 312.97 285.67 L 313.53 280.59 C315.28,264.47 314.76,265.42 332.79,245.59 C363.43,211.90 367.70,207.52 373.12,204.29 C380.21,200.07 388.19,198.08 401.00,197.36 C426.66,195.92 449.08,203.99 467.61,221.33 C472.23,225.65 476.00,229.49 476.00,229.86 C476.00,230.23 470.37,235.63 463.48,241.86 L 450.96 253.18 L 444.89 247.56 C433.03,236.58 421.52,231.90 406.00,231.74 C388.87,231.57 376.24,236.53 364.94,247.88 C354.11,258.74 349.03,271.40 349.01,287.54 C348.99,302.23 353.19,314.02 362.52,325.48 C365.03,328.55 366.81,331.50 366.48,332.03 ZM 313.50 387.01 C312.80,388.13 209.78,388.45 208.67,387.33 C208.30,386.97 208.00,386.31 208.00,385.87 C208.00,385.43 214.41,377.99 222.25,369.34 C244.00,345.32 253.20,335.11 256.64,331.14 L 259.78 327.52 L 266.64 334.99 C270.41,339.10 282.64,352.26 293.81,364.24 C304.97,376.21 313.83,386.46 313.50,387.01 ZM 1585.27 364.40 C1576.80,368.67 1565.93,366.61 1558.59,359.34 C1548.46,349.32 1550.15,329.61 1561.84,321.51 C1565.64,318.87 1567.18,318.46 1574.45,318.15 C1583.65,317.77 1586.31,318.66 1591.71,323.99 C1595.47,327.70 1599.00,336.42 1599.00,342.00 C1599.00,350.92 1593.18,360.42 1585.27,364.40 ZM 431.00 366.18 C443.13,361.98 455.15,354.31 463.33,345.54 C466.70,341.92 474.00,332.36 475.71,329.31 C476.22,328.41 476.70,327.54 477.16,326.70 C476.70,327.55 476.22,328.42 475.71,329.32 C475.05,330.52 473.83,332.36 473.00,333.42 C472.17,334.48 472.02,335.04 472.65,334.68 C473.28,334.31 474.07,334.75 474.42,335.65 C476.07,339.96 457.87,361.29 445.21,369.87 C440.48,373.07 434.61,376.21 428.51,378.88 C428.75,378.66 428.81,378.48 428.68,378.34 C428.38,378.04 426.46,378.35 424.41,379.03 C419.09,380.78 399.22,379.70 391.50,377.23 C375.34,372.06 359.44,360.56 347.00,345.03 C346.64,344.58 346.15,344.00 345.56,343.33 C346.23,343.73 346.99,343.72 348.15,343.47 C349.86,343.09 352.24,343.59 354.68,344.84 C362.16,348.65 369.29,350.60 378.77,351.24 C375.92,351.10 373.45,350.91 372.00,350.70 C366.56,349.91 366.53,349.92 369.00,351.67 C370.38,352.63 372.62,354.48 374.00,355.76 C377.93,359.43 391.81,365.80 399.50,367.46 C408.51,369.41 423.44,368.80 431.00,366.18 ZM 344.05 341.64 C341.53,338.85 338.08,335.22 334.96,332.08 C330.19,327.30 323.18,319.88 311.01,306.70 C325.43,322.23 338.00,335.43 339.38,336.33 C340.74,337.22 342.67,339.33 343.66,341.01 C343.80,341.23 343.93,341.44 344.05,341.64 ZM 292.68 286.75 C291.21,285.15 289.69,283.49 288.12,281.78 L 283.80 277.06 L 283.85 277.01 L 289.17 282.89 C290.32,284.16 291.49,285.45 292.68,286.75 ZM 412.00 384.65 C413.23,384.33 414.42,384.01 415.56,383.69 C414.36,384.05 413.18,384.38 412.03,384.67 C408.67,385.53 405.46,386.16 402.00,386.62 C405.44,386.16 408.62,385.53 412.00,384.65 ZM 390.87 351.43 C391.79,351.40 392.68,351.37 393.55,351.32 C392.68,351.37 391.79,351.41 390.87,351.43 Z" fill="rgb(16,74,229)"/>
<path d="M 473.71 339.09 C474.42,337.56 474.69,336.37 474.42,335.65 C474.07,334.75 473.28,334.31 472.65,334.68 C472.02,335.04 472.17,334.48 473.00,333.42 C473.83,332.36 475.05,330.52 475.71,329.32 C476.22,328.42 476.70,327.55 477.16,326.70 C481.82,318.22 484.50,312.40 485.86,307.73 C485.46,309.68 485.04,311.48 484.62,313.00 C481.74,323.36 478.62,330.89 473.71,339.09 ZM 344.05 341.64 C343.93,341.44 343.80,341.23 343.66,341.01 C342.67,339.33 340.74,337.22 339.38,336.33 C338.15,335.52 327.96,324.88 315.50,311.53 C328.61,325.54 338.33,335.50 340.43,336.95 C346.82,341.33 357.90,346.60 366.04,349.14 C367.20,349.50 368.47,349.83 369.81,350.11 C364.40,349.06 359.62,347.36 354.68,344.84 C352.24,343.59 349.86,343.09 348.15,343.47 C346.99,343.72 346.23,343.73 345.56,343.33 C345.11,342.82 344.60,342.25 344.05,341.64 ZM 366.48 332.03 C366.81,331.50 365.03,328.55 362.52,325.48 C353.19,314.02 348.99,302.23 349.01,287.54 C348.99,304.06 354.55,317.55 366.21,329.25 C374.24,337.31 373.73,337.61 361.50,332.01 C361.39,331.96 361.29,331.91 361.18,331.86 C364.46,333.24 365.74,333.23 366.48,332.03 ZM 772.71 411.67 C774.88,418.03 776.92,422.86 777.41,422.70 C777.94,422.52 780.24,416.78 782.52,409.94 C785.09,402.23 786.18,399.25 787.31,398.14 C786.14,399.31 784.97,402.54 782.10,411.25 C777.91,423.92 776.00,427.68 776.00,423.25 C776.00,422.41 774.58,417.44 772.71,411.67 ZM 452.84 363.81 C458.17,359.06 463.60,353.26 467.70,348.10 C463.37,353.87 458.38,359.13 452.84,363.81 ZM 444.69 318.48 C442.92,321.78 439.88,325.74 436.33,329.59 C439.33,326.18 442.43,322.00 444.69,318.48 ZM 406.77 349.09 C414.75,346.40 421.22,343.00 427.28,338.17 C424.73,340.27 422.23,342.04 420.00,343.27 C415.20,345.91 411.00,347.80 406.77,349.09 ZM 428.27 379.07 C428.36,379.00 428.44,378.94 428.51,378.88 C430.74,377.90 432.95,376.86 435.08,375.78 C432.86,376.95 430.59,378.05 428.27,379.07 ZM 347.64 323.29 C344.22,320.53 341.06,317.50 338.46,314.41 C340.92,317.34 344.20,320.47 347.64,323.29 ZM 488.75 285.88 C488.86,283.58 488.86,281.63 488.75,280.35 C488.89,281.58 488.89,283.52 488.75,285.88 ZM 488.33 278.46 L 487.87 277.00 L 487.96 277.00 ZM 769.91 403.35 C767.85,397.57 767.16,397.00 765.32,397.00 C767.15,397.00 767.84,397.52 769.91,403.35 ZM 412.03 384.67 C413.18,384.38 414.36,384.05 415.56,383.69 C415.93,383.58 416.31,383.47 416.67,383.37 C415.14,383.84 413.59,384.27 412.03,384.67 ZM 292.68 286.75 C291.49,285.45 290.32,284.16 289.17,282.89 L 283.85 277.01 L 289.17 282.89 C290.50,284.35 291.81,285.80 293.12,287.24 Z" fill="rgb(98,111,126)"/>
<path d="M 0.00 292.50 L 0.00 0.00 L 896.00 0.00 L 1792.00 0.00 L 1792.00 292.50 L 1792.00 585.00 L 896.00 585.00 L 0.00 585.00 L 0.00 292.50 ZM 625.32 431.93 C633.80,429.57 639.98,420.43 638.65,412.21 C637.79,406.96 633.48,400.45 629.63,398.63 C625.44,396.64 617.07,396.51 612.72,398.38 C606.36,401.10 602.00,407.70 602.00,414.60 C602.00,421.43 608.65,430.23 614.83,431.59 C616.30,431.91 617.95,432.33 618.50,432.51 C620.29,433.10 621.44,433.01 625.32,431.93 ZM 842.07 431.47 C847.35,429.61 849.63,427.63 852.11,422.79 C856.14,414.89 853.41,404.21 846.09,399.28 C841.39,396.11 832.12,396.12 826.53,399.28 C820.46,402.72 818.00,407.08 818.00,414.42 C818.00,423.55 822.45,429.16 831.99,432.07 C835.81,433.23 837.37,433.13 842.07,431.47 ZM 1009.29 430.35 C1014.23,427.80 1015.95,422.22 1015.98,408.75 L 1016.00 397.00 L 1013.50 397.00 L 1011.00 397.00 L 1011.00 409.58 C1011.00,422.14 1011.00,422.16 1008.08,425.08 C1002.95,430.20 994.39,428.44 992.07,421.78 C991.48,420.09 991.00,413.82 991.00,407.85 C991.00,397.67 990.88,397.00 989.00,397.00 C987.10,397.00 987.00,397.67 987.00,410.47 L 987.00 423.93 L 989.97 427.31 C994.86,432.88 1002.18,434.03 1009.29,430.35 ZM 1072.06 432.00 C1074.01,431.46 1076.94,429.63 1078.56,427.94 C1081.49,424.89 1081.50,424.81 1081.83,410.94 C1082.14,397.39 1082.09,397.00 1080.08,397.00 C1078.10,397.00 1078.00,397.53 1078.00,408.03 C1078.00,423.91 1075.85,428.00 1067.49,428.00 C1064.80,428.00 1063.08,427.24 1060.92,425.08 C1058.00,422.16 1058.00,422.14 1058.00,409.58 L 1058.00 397.00 L 1055.50 397.00 L 1053.00 397.00 L 1053.00 409.03 C1053.00,425.23 1054.46,428.62 1062.74,431.57 C1067.35,433.22 1067.64,433.23 1072.06,432.00 ZM 543.00 426.50 L 543.00 421.00 L 549.85 421.00 C557.41,421.00 562.27,418.71 564.77,413.97 C566.83,410.08 565.63,404.17 562.06,400.59 C559.05,397.59 558.67,397.49 548.48,397.16 L 538.00 396.82 L 538.00 414.41 L 538.00 432.00 L 540.50 432.00 C542.86,432.00 543.00,431.70 543.00,426.50 ZM 598.00 430.03 C598.00,428.23 597.18,428.05 587.75,427.78 L 577.50 427.50 L 577.20 421.75 L 576.90 416.00 L 585.95 416.00 C594.33,416.00 595.00,415.85 595.00,414.00 C595.00,412.15 594.33,412.00 586.00,412.00 L 577.00 412.00 L 577.00 406.50 L 577.00 401.00 L 587.00 401.00 C596.33,401.00 597.00,400.87 597.00,399.00 C597.00,397.11 596.33,397.00 585.00,397.00 L 573.00 397.00 L 573.00 414.50 L 573.00 432.00 L 585.50 432.00 C597.26,432.00 598.00,431.88 598.00,430.03 ZM 650.00 426.50 L 650.00 421.00 L 657.35 421.00 C663.35,421.00 665.33,420.58 668.09,418.72 C674.12,414.65 675.53,409.02 671.97,403.19 C669.17,398.59 664.69,397.00 654.53,397.00 L 646.00 397.00 L 646.00 414.50 C646.00,431.33 646.08,432.00 648.00,432.00 C649.76,432.00 650.00,431.33 650.00,426.50 ZM 704.00 430.04 C704.00,428.25 703.18,428.05 694.75,427.79 L 685.50 427.50 L 685.22 412.25 C684.96,397.83 684.84,397.00 682.97,397.00 C681.08,397.00 681.00,397.74 681.00,414.50 L 681.00 432.00 L 692.50 432.00 C703.26,432.00 704.00,431.87 704.00,430.04 ZM 735.00 430.00 C735.00,428.13 734.33,428.00 724.50,428.00 L 714.00 428.00 L 714.00 422.00 L 714.00 416.00 L 723.00 416.00 C731.33,416.00 732.00,415.85 732.00,414.00 C732.00,412.15 731.33,412.00 723.00,412.00 L 714.00 412.00 L 714.00 406.50 L 714.00 401.00 L 724.00 401.00 C733.33,401.00 734.00,400.87 734.00,399.00 C734.00,397.11 733.33,397.00 721.50,397.00 L 709.00 397.00 L 709.00 413.83 C709.00,423.09 709.30,430.97 709.67,431.33 C710.03,431.70 715.88,432.00 722.67,432.00 C734.33,432.00 735.00,431.89 735.00,430.00 ZM 745.50 429.00 C745.50,427.17 744.90,426.41 743.25,426.18 C741.89,425.99 740.75,426.49 740.39,427.43 C739.39,430.02 740.79,432.17 743.25,431.82 C744.90,431.59 745.50,430.83 745.50,429.00 ZM 784.20 418.52 C786.57,411.11 788.73,405.04 789.01,405.02 C789.29,405.01 791.54,410.96 794.01,418.25 C798.07,430.23 798.74,431.53 801.01,431.79 C803.41,432.07 803.74,431.41 808.90,415.79 C811.86,406.83 814.49,398.94 814.75,398.25 C815.04,397.47 814.32,397.00 812.82,397.00 C810.62,397.00 810.04,398.15 806.00,410.50 C803.57,417.92 801.34,424.00 801.03,424.00 C800.73,424.00 798.46,418.04 795.99,410.75 C791.89,398.65 791.29,397.50 789.08,397.50 C786.88,397.50 786.30,398.60 782.52,409.94 C780.24,416.78 777.94,422.52 777.41,422.70 C776.88,422.87 774.52,417.16 772.15,410.01 C768.15,397.88 767.69,397.00 765.32,397.00 C763.71,397.00 762.96,397.45 763.26,398.25 C763.52,398.94 766.10,406.48 768.99,415.00 C771.88,423.52 774.44,430.84 774.68,431.25 C774.92,431.66 776.19,432.00 777.51,432.00 C779.70,432.00 780.26,430.87 784.20,418.52 ZM 866.00 426.50 L 866.00 421.00 L 871.38 421.00 L 876.76 421.00 L 880.54 426.50 C883.31,430.51 884.96,432.00 886.67,432.00 C887.95,432.00 889.00,431.72 889.00,431.38 C889.00,431.05 887.42,428.62 885.50,426.00 C883.58,423.38 882.00,420.99 882.00,420.69 C882.00,420.40 883.33,418.83 884.95,417.21 C888.66,413.49 889.58,409.89 888.09,404.91 C886.30,398.93 883.42,397.60 871.32,397.16 L 861.00 396.77 L 861.00 414.39 L 861.00 432.00 L 863.50 432.00 C865.86,432.00 866.00,431.70 866.00,426.50 ZM 901.00 427.49 C901.00,424.02 901.61,422.29 903.67,419.99 C905.13,418.35 906.83,417.00 907.44,417.00 C908.05,417.00 911.36,420.38 914.80,424.50 C919.49,430.12 921.68,432.00 923.53,432.00 C924.89,432.00 926.00,431.74 926.00,431.42 C926.00,431.10 922.58,426.81 918.40,421.89 L 910.81 412.93 L 918.15 405.22 C924.99,398.01 925.32,397.48 923.02,397.15 C921.02,396.87 918.80,398.61 911.22,406.40 C906.08,411.68 901.68,416.00 901.44,416.00 C901.20,416.00 901.00,411.73 901.00,406.50 C901.00,397.03 900.99,397.00 898.50,397.00 L 896.00 397.00 L 896.00 414.50 L 896.00 432.00 L 898.50 432.00 C900.80,432.00 901.00,431.63 901.00,427.49 ZM 934.99 430.51 C936.74,428.40 935.49,426.00 932.64,426.00 C930.05,426.00 928.69,428.04 929.64,430.50 C930.38,432.43 933.40,432.43 934.99,430.51 ZM 961.00 425.00 L 961.00 418.00 L 969.50 418.00 C977.27,418.00 978.00,417.83 978.00,416.04 C978.00,414.28 977.18,414.05 969.75,413.79 L 961.50 413.50 L 961.20 407.25 L 960.90 401.00 L 970.95 401.00 C980.33,401.00 981.00,400.87 981.00,399.00 C981.00,397.11 980.33,397.00 968.50,397.00 L 956.00 397.00 L 956.00 414.50 L 956.00 432.00 L 958.50 432.00 C960.93,432.00 961.00,431.80 961.00,425.00 ZM 1037.00 416.50 L 1037.00 401.00 L 1043.00 401.00 C1048.33,401.00 1049.00,400.78 1049.00,399.00 C1049.00,397.09 1048.33,397.00 1034.50,397.00 C1020.67,397.00 1020.00,397.09 1020.00,399.00 C1020.00,400.78 1020.67,401.00 1026.00,401.00 L 1032.00 401.00 L 1032.00 416.50 L 1032.00 432.00 L 1034.50 432.00 L 1037.00 432.00 L 1037.00 416.50 ZM 1096.00 426.50 L 1096.00 421.00 L 1101.95 421.00 L 1107.89 421.00 L 1111.54 426.50 C1114.28,430.63 1115.79,432.00 1117.60,432.00 C1118.92,432.00 1120.00,431.75 1120.00,431.44 C1120.00,431.13 1118.22,428.54 1116.04,425.69 L 1112.08 420.50 L 1115.01 418.20 C1119.28,414.85 1120.65,409.00 1118.30,404.19 C1115.65,398.76 1111.36,397.00 1100.75,397.00 L 1092.00 397.00 L 1092.00 414.50 C1092.00,431.33 1092.08,432.00 1094.00,432.00 C1095.76,432.00 1096.00,431.33 1096.00,426.50 ZM 1152.00 430.00 C1152.00,428.13 1151.33,428.00 1142.00,428.00 L 1132.00 428.00 L 1132.00 422.00 L 1132.00 416.00 L 1140.50 416.00 C1148.33,416.00 1149.00,415.84 1149.00,414.00 C1149.00,412.16 1148.33,412.00 1140.50,412.00 L 1132.00 412.00 L 1132.00 406.50 L 1132.00 401.00 L 1141.50 401.00 C1150.33,401.00 1151.00,400.86 1151.00,399.00 C1151.00,397.11 1150.33,397.00 1139.00,397.00 L 1127.00 397.00 L 1127.00 414.50 L 1127.00 432.00 L 1139.50 432.00 C1151.33,432.00 1152.00,431.89 1152.00,430.00 ZM 1163.50 430.01 C1164.35,427.33 1163.36,426.00 1160.55,426.00 C1157.84,426.00 1156.45,428.63 1158.11,430.63 C1159.78,432.64 1162.77,432.30 1163.50,430.01 ZM 1262.65 411.39 C1285.42,406.67 1300.98,391.46 1307.17,367.89 C1309.30,359.76 1309.38,357.57 1309.74,296.75 L 1310.12 234.00 L 1293.14 234.00 L 1276.16 234.00 L 1275.47 240.41 L 1274.79 246.82 L 1268.69 241.90 C1260.44,235.26 1253.81,232.87 1241.87,232.25 C1206.29,230.39 1180.15,254.95 1178.32,291.96 C1177.32,312.04 1183.33,328.60 1196.27,341.44 C1200.24,345.39 1205.73,349.85 1208.45,351.35 C1228.36,362.34 1253.62,360.89 1268.37,347.91 C1270.81,345.76 1273.08,344.00 1273.40,344.00 C1274.36,344.00 1274.10,351.12 1272.91,357.53 C1270.01,373.20 1260.95,381.27 1244.71,382.64 C1231.47,383.76 1215.41,379.31 1204.36,371.45 C1201.69,369.55 1199.05,368.01 1198.50,368.01 C1197.03,368.03 1183.76,393.81 1184.56,395.10 C1184.94,395.70 1187.91,397.92 1191.17,400.03 C1209.34,411.77 1238.48,416.41 1262.65,411.39 ZM 313.50 387.01 C313.83,386.46 304.97,376.21 293.81,364.24 C282.64,352.26 270.41,339.10 266.64,334.99 L 259.78 327.52 L 256.64 331.14 C253.20,335.11 244.00,345.32 222.25,369.34 C214.41,377.99 208.00,385.43 208.00,385.87 C208.00,386.31 208.30,386.97 208.67,387.33 C209.78,388.45 312.80,388.13 313.50,387.01 ZM 412.03 384.67 C436.82,378.31 458.02,363.40 471.26,343.00 C477.63,333.19 481.29,324.98 484.62,313.00 C487.25,303.55 489.63,283.64 488.62,279.61 L 487.96 277.00 L 441.98 277.00 L 396.00 277.00 L 396.00 294.00 L 396.00 311.00 L 422.00 311.00 C436.30,311.00 448.00,311.27 448.00,311.61 C448.00,314.39 440.17,325.84 434.00,332.10 C425.79,340.40 417.62,345.48 406.50,349.17 C396.42,352.52 376.85,352.51 366.04,349.14 C357.90,346.60 346.82,341.33 340.43,336.95 C337.07,334.64 314.19,310.51 289.17,282.89 L 283.85 277.01 L 286.01 274.25 C287.19,272.74 295.92,262.95 305.40,252.50 C324.84,231.07 350.53,202.55 353.40,199.21 L 355.31 197.00 L 331.40 197.00 L 307.48 197.00 L 291.49 214.68 C266.11,242.75 219.08,294.99 212.31,302.64 L 206.11 309.64 L 205.81 336.32 C205.64,350.99 205.80,363.00 206.17,363.00 C206.53,363.00 218.65,349.77 233.08,333.60 C247.52,317.42 259.82,304.42 260.42,304.69 C261.01,304.96 268.92,313.49 278.00,323.64 C313.97,363.88 329.69,375.99 355.67,383.52 C367.87,387.06 375.55,387.95 390.00,387.50 C398.96,387.23 405.20,386.42 412.03,384.67 ZM 744.20 365.88 C751.20,364.39 758.20,360.78 763.45,355.94 C765.80,353.77 767.99,352.00 768.31,352.00 C768.64,352.00 769.04,354.81 769.20,358.25 L 769.50 364.50 L 786.00 364.50 L 802.50 364.50 L 802.50 319.00 C802.50,274.81 802.44,273.30 800.28,266.46 C795.04,249.80 784.64,239.77 767.48,234.82 C756.34,231.60 732.54,231.63 720.50,234.87 C711.94,237.17 698.10,243.39 694.00,246.78 L 691.50 248.85 L 697.74 261.42 C701.18,268.34 704.40,274.00 704.91,274.00 C705.41,274.00 708.23,272.42 711.16,270.48 C720.95,264.03 726.04,262.61 739.50,262.55 C750.75,262.50 751.78,262.67 756.05,265.18 C761.16,268.18 765.35,274.79 766.46,281.60 L 767.13 285.71 L 746.81 286.41 C715.73,287.49 705.43,290.45 695.56,301.10 C688.56,308.67 686.50,314.48 686.55,326.50 C686.60,337.63 689.11,344.68 695.61,351.91 C701.90,358.91 712.69,364.58 723.00,366.31 C728.20,367.18 739.10,366.96 744.20,365.88 ZM 881.06 365.42 C888.34,363.76 898.23,358.07 901.88,353.43 C902.93,352.09 904.04,351.00 904.35,351.00 C904.66,351.00 905.04,354.04 905.20,357.75 L 905.50 364.50 L 922.00 364.50 L 938.50 364.50 L 938.76 323.51 C939.12,267.86 937.77,260.65 924.55,247.39 C917.56,240.37 913.28,237.94 902.32,234.77 C891.25,231.56 869.57,231.58 856.50,234.82 C847.76,236.98 830.29,244.74 828.03,247.46 C827.17,248.50 828.37,251.73 833.19,261.40 C836.64,268.33 839.98,274.00 840.61,274.00 C841.24,274.00 842.22,273.44 842.79,272.75 C844.51,270.68 856.31,265.00 862.10,263.46 C869.10,261.60 881.31,261.60 887.61,263.48 C895.20,265.73 900.40,272.36 901.63,281.33 L 902.23 285.70 L 881.51 286.42 C866.53,286.94 858.77,287.65 853.49,289.00 C839.21,292.65 830.07,299.08 825.28,308.84 C822.75,313.99 822.50,315.50 822.50,325.50 C822.50,335.77 822.71,336.94 825.65,343.16 C827.39,346.82 830.63,351.58 832.85,353.74 C844.24,364.79 863.40,369.43 881.06,365.42 ZM 1386.20 365.88 C1393.48,364.33 1400.36,360.68 1406.08,355.32 L 1410.90 350.82 L 1411.20 357.66 L 1411.50 364.50 L 1428.25 364.77 L 1445.00 365.05 L 1445.00 321.47 C1445.00,285.07 1444.73,276.71 1443.39,270.70 C1439.22,252.06 1427.18,239.70 1408.00,234.36 C1398.29,231.66 1373.43,231.93 1362.65,234.84 C1353.74,237.26 1337.22,244.78 1335.07,247.40 C1333.79,248.95 1334.28,250.45 1339.57,261.16 C1342.83,267.77 1345.84,273.39 1346.25,273.65 C1346.67,273.91 1349.62,272.51 1352.81,270.54 C1362.14,264.78 1368.40,262.80 1379.00,262.26 C1384.66,261.97 1390.22,262.24 1392.76,262.93 C1400.64,265.06 1406.98,272.65 1408.35,281.59 L 1408.97 285.68 L 1388.74 286.36 C1377.47,286.73 1365.40,287.69 1361.50,288.51 C1336.75,293.74 1324.01,312.40 1329.44,335.48 C1330.34,339.32 1332.16,344.30 1333.48,346.56 C1342.17,361.39 1366.07,370.15 1386.20,365.88 ZM 1585.27 364.40 C1593.18,360.42 1599.00,350.92 1599.00,342.00 C1599.00,336.42 1595.47,327.70 1591.71,323.99 C1586.31,318.66 1583.65,317.77 1574.45,318.15 C1567.18,318.46 1565.64,318.87 1561.84,321.51 C1550.15,329.61 1548.46,349.32 1558.59,359.34 C1565.93,366.61 1576.80,368.67 1585.27,364.40 ZM 575.00 342.33 C575.47,321.67 575.64,320.00 577.58,317.83 C579.51,315.67 594.01,298.88 594.54,298.19 C594.76,297.91 607.82,316.42 629.33,347.50 C642.90,367.12 638.82,365.00 663.01,365.00 C674.37,365.00 683.95,364.72 684.30,364.37 C684.96,363.71 675.63,349.80 640.88,299.62 L 620.19 269.75 L 631.84 256.04 C638.25,248.50 651.56,232.70 661.41,220.92 C671.27,209.14 680.00,198.71 680.82,197.75 C682.23,196.09 681.19,196.00 660.81,196.00 L 639.31 196.00 L 616.86 222.25 C604.51,236.69 590.15,253.56 584.95,259.74 L 575.50 270.97 L 575.24 233.49 L 574.98 196.00 L 556.03 196.00 L 537.09 196.00 L 537.06 278.97 C537.05,324.60 537.30,362.63 537.63,363.49 C538.15,364.83 540.71,365.01 556.37,364.77 L 574.50 364.50 L 575.00 342.33 ZM 1000.03 332.25 C1000.06,293.69 1000.85,283.19 1004.30,275.66 C1008.41,266.67 1017.01,262.13 1027.22,263.53 C1033.47,264.39 1037.91,268.13 1041.12,275.24 C1043.47,280.44 1043.51,280.95 1044.00,322.50 L 1044.50 364.50 L 1062.25 364.77 L 1080.00 365.05 L 1080.00 327.71 C1080.00,282.55 1080.70,277.38 1087.86,269.66 C1091.42,265.83 1094.72,264.24 1100.73,263.44 C1112.97,261.82 1120.59,268.57 1122.95,283.13 C1123.53,286.70 1123.99,306.09 1123.99,327.27 L 1124.00 365.05 L 1141.75 364.77 L 1159.50 364.50 L 1159.76 322.01 C1160.05,274.71 1159.47,267.87 1154.15,256.50 C1152.49,252.95 1149.01,247.79 1146.42,245.02 C1129.78,227.22 1095.78,227.71 1076.79,246.01 L 1071.66 250.96 L 1066.41 245.17 C1059.22,237.22 1050.42,233.14 1038.65,232.31 C1024.12,231.29 1012.97,234.66 1002.75,243.17 L 998.00 247.12 L 998.00 240.56 L 998.00 234.00 L 981.00 234.00 L 964.00 234.00 L 964.00 298.83 C964.00,334.49 964.30,363.97 964.67,364.33 C965.03,364.70 973.13,365.00 982.67,365.00 L 1000.00 365.00 L 1000.03 332.25 ZM 1506.02 335.25 C1506.04,290.52 1507.45,282.45 1516.67,273.95 C1522.90,268.21 1526.98,266.72 1537.50,266.36 L 1546.50 266.05 L 1546.77 249.03 L 1547.05 232.00 L 1543.27 232.01 C1530.67,232.03 1516.30,237.70 1509.12,245.48 C1506.83,247.97 1504.74,250.00 1504.48,250.00 C1504.22,250.00 1504.00,246.40 1504.00,242.00 L 1504.00 234.00 L 1487.00 234.00 L 1470.00 234.00 L 1470.00 298.83 C1470.00,334.49 1470.30,363.97 1470.67,364.33 C1471.03,364.70 1479.13,365.00 1488.67,365.00 L 1506.00 365.00 L 1506.02 335.25 ZM 366.21 329.25 C354.55,317.55 348.99,304.06 349.01,287.54 C349.03,271.40 354.11,258.74 364.94,247.88 C376.24,236.53 388.87,231.57 406.00,231.74 C421.52,231.90 433.03,236.58 444.89,247.56 L 450.96 253.18 L 463.48 241.86 C470.37,235.63 476.00,230.23 476.00,229.86 C476.00,229.49 472.23,225.65 467.61,221.33 C449.08,203.99 426.66,195.92 401.00,197.36 C388.19,198.08 380.21,200.07 373.12,204.29 C367.70,207.52 363.43,211.90 332.79,245.59 C314.76,265.42 315.28,264.47 313.53,280.59 L 312.97 285.67 L 323.24 297.09 C328.88,303.37 335.73,311.16 338.46,314.41 C344.38,321.45 353.25,328.23 361.50,332.01 C373.73,337.61 374.24,337.31 366.21,329.25 ZM 221.73 268.25 C230.00,259.04 237.72,250.64 238.88,249.60 C240.93,247.75 241.00,246.89 241.00,222.35 L 241.00 197.00 L 223.16 197.00 L 205.32 197.00 L 205.33 241.00 C205.34,265.20 205.65,285.00 206.02,285.00 C206.38,285.00 213.45,277.46 221.73,268.25 ZM 613.21 425.86 C609.14,423.25 607.00,419.26 607.01,414.30 C607.03,409.31 608.77,406.07 612.91,403.28 C616.72,400.72 623.00,400.27 626.97,402.28 C630.82,404.23 634.00,409.71 634.00,414.40 C633.99,425.20 622.27,431.66 613.21,425.86 ZM 830.42 427.03 C827.22,425.74 823.32,420.54 822.58,416.57 C821.57,411.20 824.89,404.36 829.43,402.47 C835.32,400.00 840.42,400.55 844.44,404.08 C851.12,409.95 851.13,419.05 844.45,424.91 C841.66,427.36 840.05,427.99 836.72,427.94 C834.40,427.90 831.56,427.49 830.42,427.03 ZM 543.00 409.00 L 543.00 401.00 L 549.55 401.00 C555.16,401.00 556.44,401.35 558.55,403.45 C560.09,405.00 561.00,407.05 561.00,409.00 C561.00,410.95 560.09,413.00 558.55,414.55 C556.44,416.65 555.16,417.00 549.55,417.00 L 543.00 417.00 L 543.00 409.00 ZM 650.46 415.76 C650.15,414.95 650.03,411.41 650.20,407.89 L 650.50 401.50 L 657.84 401.50 C664.35,401.50 665.39,401.77 667.09,403.86 C669.52,406.86 669.53,411.12 667.12,414.10 C665.55,416.04 664.09,416.49 658.13,416.82 C652.54,417.14 650.90,416.91 650.46,415.76 ZM 866.00 408.89 L 866.00 400.77 L 873.12 401.18 C879.09,401.51 880.55,401.96 882.12,403.90 C884.75,407.15 884.51,411.58 881.55,414.55 C879.44,416.65 878.16,417.00 872.55,417.00 L 866.00 417.00 L 866.00 408.89 ZM 1096.67 416.33 C1096.30,415.97 1096.00,412.32 1096.00,408.22 L 1096.00 400.78 L 1103.61 401.17 C1110.12,401.49 1111.49,401.89 1113.11,403.89 C1115.75,407.15 1115.52,411.57 1112.55,414.55 C1110.45,416.64 1109.15,417.00 1103.71,417.00 C1100.20,417.00 1097.03,416.70 1096.67,416.33 ZM 1236.80 325.66 C1222.28,321.58 1214.11,308.80 1215.27,291.96 C1216.52,273.60 1227.18,263.07 1244.55,263.02 C1256.88,262.99 1264.68,267.57 1269.97,277.94 C1276.81,291.34 1273.21,312.40 1262.71,320.41 C1255.46,325.94 1245.21,328.02 1236.80,325.66 ZM 730.59 337.80 C725.22,334.64 722.80,331.01 722.27,325.32 C721.74,319.58 724.39,314.85 730.00,311.55 C733.08,309.75 735.52,309.46 750.36,309.16 L 767.23 308.83 L 766.85 316.26 C766.38,325.61 762.85,331.96 755.66,336.41 C751.59,338.92 749.65,339.42 742.69,339.73 C735.55,340.05 734.00,339.80 730.59,337.80 ZM 865.91 337.71 C857.63,333.42 854.80,322.33 860.22,315.45 C864.24,310.33 867.22,309.59 885.25,309.18 L 902.00 308.80 L 902.00 315.43 C902.00,322.87 900.63,326.92 896.44,331.89 C889.83,339.73 875.18,342.52 865.91,337.71 ZM 1372.59 337.73 C1367.23,334.67 1364.80,331.02 1364.30,325.32 C1363.75,318.89 1366.22,314.13 1371.50,311.51 C1374.90,309.82 1378.00,309.46 1392.25,309.16 L 1409.00 308.80 L 1408.99 315.15 C1408.97,330.32 1398.92,340.02 1383.28,339.98 C1378.12,339.97 1375.57,339.43 1372.59,337.73 Z" fill="rgb(235,246,247)"/>
</g>
</svg>